{"title":"The Offspring - Rise And Fall, Rage And Grace [EAC@FLAC]","uid":4346605,"size":323085248,"categoryP":"audio","categoryS":"flac","magnet":"?xt=urn:btih:5e180d3ab8ec59dbe9ef6f9d79654bbd19ed746a&amp;dn=The+Offspring+-+Rise+And+Fall%2C+Rage+And+Grace+%5BEAC%40FLAC%5D&amp;tr=udp%3A%2F%2Ftracker.openbittorrent.com%3A80&amp;tr=udp%3A%2F%2Fopen.demonii.com%3A1337&amp;tr=udp%3A%2F%2Ftracker.coppersurfer.tk%3A6969&amp;tr=udp%3A%2F%2Fexodus.desync.com%3A6969","seeders":1,"leechers":1,"uploader":"frozst","files":13,"time":1218908650,"description":"Exact Audio Copy V0.99 prebeta 4 from 23. January 2008\n\nEAC extraction logfile from 16. August 2008, 17:27\n\nThe Offspring / Rise And Fall, Rage And Grace\n\nUsed drive  : MATSHITAUJ-840D   Adapter: 0  ID: 1\n\nRead mode               : Secure\nUtilize accurate stream : Yes\nDefeat audio cache      : No\nMake use of C2 pointers : Yes\n\nRead offset correction                      : 102\nOverread into Lead-In and Lead-Out          : No\nFill up missing offset samples with silence : Yes\nDelete leading and trailing silent blocks   : No\nNull samples used in CRC calculations       : No\nUsed interface                              : Native Win32 interface for Win NT &amp; 2000\nGap handling                                : Not detected, thus appended to previous track\n\nUsed output format              : User Defined Encoder\nSelected bitrate                : 320 kBit/s\nQuality                         : High\nAdd ID3 tag                     : Yes\nCommand line compressor         : C:Archivos de programaExact Audio Copyflac.exe\nAdditional command line options : --best -T &quot;artist=%a&quot; -T &quot;title=%t&quot; -T &quot;album=%g&quot; -T &quot;date=%y&quot; -T &quot;tracknumber=%n&quot; -T &quot;genre=%m&quot; -5 %s\n\n\nTOC of the extracted CD\n\n     Track |   Start  |  Length  | Start sector | End sector \n    ---------------------------------------------------------\n        1  |  0:00.00 |  3:25.71 |         0    |    15445   \n        2  |  3:25.71 |  3:09.12 |     15446    |    29632   \n        3  |  6:35.08 |  2:57.62 |     29633    |    42969   \n        4  |  9:32.70 |  4:38.33 |     42970    |    63852   \n        5  | 14:11.28 |  4:28.04 |     63853    |    83956   \n        6  | 18:39.32 |  2:59.38 |     83957    |    97419   \n        7  | 21:38.70 |  3:42.65 |     97420    |   114134   \n        8  | 25:21.60 |  3:29.25 |    114135    |   129834   \n        9  | 28:51.10 |  3:32.48 |    129835    |   145782   \n       10  | 32:23.58 |  4:18.63 |    145783    |   165195   \n       11  | 36:42.46 |  4:04.43 |    165196    |   183538   \n       12  | 40:47.14 |  2:59.09 |    183539    |   196972   \n\n\nTrack  1\n\n     Filename C:EACThe OffspringRise And Fall, Rage And GraceThe Offspring - 01 - Half-Truism.wav\n\n     Peak level 99.9 %\n     Track quality 100.0 %\n     Copy CRC BE83F3AF\n     Accurately ripped (confidence 6)  [58C8751C]\n     Copy OK\n\nTrack  2\n\n     Filename C:EACThe OffspringRise And Fall, Rage And GraceThe Offspring - 02 - Trust In You.wav\n\n     Peak level 99.9 %\n     Track quality 99.8 %\n     Copy CRC 386D3638\n     Accurately ripped (confidence 6)  [35DE07F1]\n     Copy OK\n\nTrack  3\n\n     Filename C:EACThe OffspringRise And Fall, Rage And GraceThe Offspring - 03 - You&amp;#039;re Gonna Go Far, Kid [Explicit Album Version].wav\n\n     Peak level 99.9 %\n     Track quality 100.0 %\n     Copy CRC F84ECE56\n     Accurately ripped (confidence 6)  [30FF6378]\n     Copy OK\n\nTrack  4\n\n     Filename C:EACThe OffspringRise And Fall, Rage And GraceThe Offspring - 04 - Hammerhead.wav\n\n     Peak level 99.9 %\n     Track quality 100.0 %\n     Copy CRC 9977D999\n     Accurately ripped (confidence 6)  [05422529]\n     Copy OK\n\nTrack  5\n\n     Filename C:EACThe OffspringRise And Fall, Rage And GraceThe Offspring - 05 - A Lot Like Me.wav\n\n     Peak level 99.9 %\n     Track quality 99.9 %\n     Copy CRC 2FCF062D\n     Accurately ripped (confidence 6)  [FFEE5F5C]\n     Copy OK\n\nTrack  6\n\n     Filename C:EACThe OffspringRise And Fall, Rage And GraceThe Offspring - 06 - Takes Me Nowhere.wav\n\n     Peak level 99.9 %\n     Track quality 100.0 %\n     Copy CRC 78174AC8\n     Accurately ripped (confidence 6)  [F5BEB885]\n     Copy OK\n\nTrack  7\n\n     Filename C:EACThe OffspringRise And Fall, Rage And GraceThe Offspring - 07 - Kristy, Are You Doing Okay .wav\n\n     Peak level 99.9 %\n     Track quality 100.0 %\n     Copy CRC 599A4AAE\n     Accurately ripped (confidence 6)  [20B76720]\n     Copy OK\n\nTrack  8\n\n     Filename C:EACThe OffspringRise And Fall, Rage And GraceThe Offspring - 08 - Nothingtown [Explicit Album Version].wav\n\n     Peak level 99.9 %\n     Track quality 100.0 %\n     Copy CRC FF2942C4\n     Accurately ripped (confidence 6)  [061E6DA4]\n     Copy OK\n\nTrack  9\n\n     Filename C:EACThe OffspringRise And Fall, Rage And GraceThe Offspring - 09 - Stuff Is Messed Up [Explicit Album Version].wav\n\n     Peak level 99.9 %\n     Track quality 100.0 %\n     Copy CRC 93BF7C72\n     Accurately ripped (confidence 6)  [EAB961EC]\n     Copy OK\n\nTrack 10\n\n     Filename C:EACThe OffspringRise And Fall, Rage And GraceThe Offspring - 10 - Fix You.wav\n\n     Peak level 99.9 %\n     Track quality 100.0 %\n     Copy CRC 640686D2\n     Accurately ripped (confidence 6)  [CE8739F8]\n     Copy OK\n\nTrack 11\n\n     Filename C:EACThe OffspringRise And Fall, Rage And GraceThe Offspring - 11 - Let&amp;#039;s Hear It For Rock Bottom.wav\n\n     Peak level 99.9 %\n     Track quality 100.0 %\n     Copy CRC 79DCA600\n     Accurately ripped (confidence 6)  [390C9FE1]\n     Copy OK\n\nTrack 12\n\n     Filename C:EACThe OffspringRise And Fall, Rage And GraceThe Offspring - 12 - Rise And Fall.wav\n\n     Peak level 99.9 %\n     Track quality 100.0 %\n     Copy CRC CD6215CA\n     Accurately ripped (confidence 6)  [64180A40]\n     Copy OK\n\n\nAll tracks accurately ripped\n\nNo errors occurred\n\nEnd of status report\n","torrent":{"xt":"urn:btih:5e180d3ab8ec59dbe9ef6f9d79654bbd19ed746a","amp;dn":"The+Offspring+-+Rise+And+Fall%2C+Rage+And+Grace+%5BEAC%40FLAC%5D","amp;tr":["udp%3A%2F%2Ftracker.openbittorrent.com%3A80","udp%3A%2F%2Fopen.demonii.com%3A1337","udp%3A%2F%2Ftracker.coppersurfer.tk%3A6969","udp%3A%2F%2Fexodus.desync.com%3A6969"],"infoHash":"5e180d3ab8ec59dbe9ef6f9d79654bbd19ed746a","infoHashBuffer":{"type":"Buffer","data":[94,24,13,58,184,236,89,219,233,239,111,157,121,101,75,189,25,237,116,106]},"announce":[],"urlList":[]}}